<?xml version="1.0" encoding="utf-8"?>
<!-- Generator: Adobe Illustrator 21.0.2, SVG Export Plug-In . SVG Version: 6.00 Build 0)  -->
<svg version="1.1" id="Layer_1" xmlns="http://www.w3.org/2000/svg" xmlns:xlink="http://www.w3.org/1999/xlink" x="0px" y="0px"
	 viewBox="0 0 410 80" style="enable-background:new 0 0 410 80;" xml:space="preserve">
<style type="text/css">
	.st0{fill:none;}
	.st1{fill:url(#SVGID_1_);}
	.st2{fill:#FFFFFF;}
	.st3{fill:url(#SVGID_2_);}
	.st4{fill:#221E1F;}
	.st5{font-family:'AdobeSongStd-Light-GBpc-EUC-H';}
	.st6{font-size:17px;}
	.st7{font-size:11px;}
</style>
<path class="st0" d="M78.2,18.2"/>
<linearGradient id="SVGID_1_" gradientUnits="userSpaceOnUse" x1="-50.5163" y1="84.3096" x2="54.0469" y2="84.3096" gradientTransform="matrix(0.969 0.238 -0.2166 0.8817 89.2196 -34.6314)">
	<stop  offset="9.100160e-02" style="stop-color:#0091C7"/>
	<stop  offset="0.2762" style="stop-color:#0099D2"/>
	<stop  offset="0.7108" style="stop-color:#00A8E7"/>
	<stop  offset="1" style="stop-color:#00ADEE"/>
</linearGradient>
<path class="st1" d="M53.8,10.8c9.8-4,41.4-18.1,67.2,2.5c0,0,17.8,14-2.2,37.8c0,0-24.7,28.6-67.7,26.5c0,0-45.8-3.9-32.2-34.8
	C18.8,42.8,25.6,22.2,53.8,10.8z"/>
<path class="st2" d="M28.7,42.8C34,31.6,51.3,15,69.4,10.1c4-1.1,7.1,2.9,3.9,7.1c-2.6,3.4-5.2,7.6-19.5,12.4c-1.6,0.6-1-0.9,0-5.4
	c0,0-8.5,10.1-4.5,10.9c0,0,10.8,3.3,26-11.1c0,0,9.8-9.4,7.9-16.6c0,0,25.2-5.5,35.8,12.9c0,0,11.1,19-19.7,41.9
	c0,0-24,17.7-53.6,11.7C45.7,73.8,16.4,68.7,28.7,42.8z"/>
<linearGradient id="SVGID_2_" gradientUnits="userSpaceOnUse" x1="55.4689" y1="40.7361" x2="119.1591" y2="40.7361" gradientTransform="matrix(0.9981 -3.890101e-02 4.611238e-02 0.9854 -0.4041 3.6133)">
	<stop  offset="0" style="stop-color:#0091C7"/>
	<stop  offset="0.2037" style="stop-color:#0099D2"/>
	<stop  offset="0.6818" style="stop-color:#00A8E7"/>
	<stop  offset="1" style="stop-color:#00ADEE"/>
</linearGradient>
<path class="st3" d="M93.9,51.6c0.1-3.6-2.1-6.5-6.6-8.9c-2.5-1.4-4.7-2.9-6.5-4.7c-1.8-1.8-2.8-3.1-3-4c-0.2-0.9-0.1-1.7,0.3-2.5
	c1.8-3.5,4.1-6.5,6.9-8.9c2.9-2.4,6.9-3.8,12.1-4.1c5.2-0.3,10.4,0.2,15.5,1.6c2.2,0.6,3.8,1.3,4.9,2c1.1,0.7,1.7,1.3,2,1.9
	c0.2,0.5,0.2,1.2-0.2,1.9c-0.7,1.4-1.5,2.6-2.4,3.5c-0.8,0.9-1.6,1.4-2.2,1.6c-0.6,0.2-1.8,0.4-3.4,0.6c-1.5,0.1-2.6,0.3-3.4,0.5
	c-0.8,0.2-2.1,0.6-4,1.2c-0.8,0.3-1.3,0.4-1.6,0.4c-0.2-0.1-0.3-0.2-0.2-0.4c0.2-0.4,0.8-0.9,1.9-1.5c1-0.6,2.3-1,3.8-1.4
	c1.5-0.4,2.3-0.7,2.4-0.9c0.1-0.2-0.6-0.6-2.1-1c-5.5-1.5-10.7-2-15.5-1.4c-4.8,0.6-7.8,1.9-8.8,3.9c-0.2,0.4-0.3,0.8-0.2,1.2
	c0,0.4,0.2,0.7,0.4,0.9l5.8,4.3c1.9,1.4,3.6,2.9,5,4.4c1.4,1.5,2.3,2.9,2.9,4.3c0.6,1.3,0.8,2.5,0.8,3.6c0,1.1-0.3,2.2-0.9,3.3
	c-1,2.1-2.9,4-5.4,6c-2.6,1.9-6.3,2.9-11.2,3c-4.9,0.1-9.5-0.5-14-1.7c-3.7-1-6.3-2.2-8-3.6c-1.6-1.4-2.1-2.8-1.3-4.3
	c0.7-1.4,2.1-2.8,4.1-4c2-1.3,3.8-1.7,5.3-1.2c1,0.3,1.5,0.6,1.4,0.8c0,0.1-0.4,0.2-1,0.2c-0.9,0.1-1.4,0.2-1.7,0.3
	c-0.3,0.1-0.5,0.2-0.6,0.5c-0.2,0.5,1.4,1.2,5.1,2.2c4.7,1.3,8.3,2.1,10.7,2.4c2.4,0.3,4.7,0.3,6.8-0.1
	C89.9,53.1,91.9,52.5,93.9,51.6z"/>
<text transform="matrix(1.3051 0 0 1 133.3428 48.1484)" class="st4 st5 st6">长春玖晟工程科技有限公司</text>
<text transform="matrix(1.537 0 0 1 133.3423 65.8359)" class="st4 st5 st7">CHANGCHUN JIUSHENG ZHILENG</text>
</svg>
